<?xml version="1.0" encoding="UTF-8" standalone="no"?>
<!-- Created with Inkscape (http://www.inkscape.org/) -->

<svg
   width="70.286613mm"
   height="38.775162mm"
   viewBox="0 0 70.286614 38.775161"
   version="1.1"
   id="svg5"
   xml:space="preserve"
   inkscape:version="1.2.2 (b0a84865, 2022-12-01)"
   sodipodi:docname="buttons.svg"
   xmlns:inkscape="http://www.inkscape.org/namespaces/inkscape"
   xmlns:sodipodi="http://sodipodi.sourceforge.net/DTD/sodipodi-0.dtd"
   xmlns="http://www.w3.org/2000/svg"
   xmlns:svg="http://www.w3.org/2000/svg"><sodipodi:namedview
     id="namedview7"
     pagecolor="#505050"
     bordercolor="#eeeeee"
     borderopacity="1"
     inkscape:showpageshadow="0"
     inkscape:pageopacity="0"
     inkscape:pagecheckerboard="0"
     inkscape:deskcolor="#505050"
     inkscape:document-units="mm"
     showgrid="false"
     inkscape:zoom="4.8320843"
     inkscape:cx="110.61479"
     inkscape:cy="51.323608"
     inkscape:window-width="3440"
     inkscape:window-height="1312"
     inkscape:window-x="0"
     inkscape:window-y="25"
     inkscape:window-maximized="1"
     inkscape:current-layer="g148" /><defs
     id="defs2"><marker
       id="DistanceX"
       orient="auto"
       refX="0"
       refY="0"
       style="overflow:visible"><path
         d="M 3,-3 -3,3 M 0,-5 V 5"
         style="stroke:#000000;stroke-width:0.5"
         id="path27" /></marker><pattern
       id="Hatch"
       patternUnits="userSpaceOnUse"
       width="8"
       height="8"
       x="0"
       y="0"><path
         d="M8 4 l-4,4"
         stroke="#000000"
         stroke-width="0.25"
         linecap="square"
         id="path30" /><path
         d="M6 2 l-4,4"
         stroke="#000000"
         stroke-width="0.25"
         linecap="square"
         id="path32" /><path
         d="M4 0 l-4,4"
         stroke="#000000"
         stroke-width="0.25"
         linecap="square"
         id="path34" /></pattern><symbol
       id="*Model_Space" /><symbol
       id="*Paper_Space" /><symbol
       id="*Paper_Space0" /><marker
       id="DistanceX-3"
       orient="auto"
       refX="0"
       refY="0"
       style="overflow:visible"><path
         d="M 3,-3 -3,3 M 0,-5 V 5"
         style="stroke:#000000;stroke-width:0.5"
         id="path407" /></marker><pattern
       id="Hatch-7"
       patternUnits="userSpaceOnUse"
       width="8"
       height="8"
       x="0"
       y="0"><path
         d="M8 4 l-4,4"
         stroke="#000000"
         stroke-width="0.25"
         linecap="square"
         id="path410" /><path
         d="M6 2 l-4,4"
         stroke="#000000"
         stroke-width="0.25"
         linecap="square"
         id="path412" /><path
         d="M4 0 l-4,4"
         stroke="#000000"
         stroke-width="0.25"
         linecap="square"
         id="path414" /></pattern><symbol
       id="*Model_Space-9" /><symbol
       id="*Paper_Space-0" /><symbol
       id="*Paper_Space0-2" /></defs><g
     inkscape:label="Layer 1"
     inkscape:groupmode="layer"
     id="layer1"
     transform="translate(-11.519805,-78.333482)"><g
       id="g148"
       transform="matrix(1.4485151,0,0,1.4485151,45.577767,-1521.2868)"><g
         inkscape:label="0"
         id="g42" /><path
         d="m -17.999155,1113.4425 a 1.868635,1.868635 0 0 0 -3.73727,0 1.868635,1.868635 0 0 0 3.73727,0 z"
         style="fill:#1a1a1a;stroke:none;stroke-width:0.412007"
         id="path422" /><path
         d="m -13.681041,1111.6272 a 1.868635,1.868635 0 0 0 -3.73727,0 1.868635,1.868635 0 0 0 3.73727,0 z"
         style="fill:#1a1a1a;stroke:none;stroke-width:0.412007"
         id="path424" /><path
         d="m -8.5435502,1107.9257 a 1.8686349,1.8686349 0 0 0 -3.7372698,0 1.8686349,1.8686349 0 0 0 3.7372698,0 z"
         style="fill:#1a1a1a;stroke:none;stroke-width:0.412007"
         id="path426" /><path
         d="m -9.258853,1111.9466 a 1.8686359,1.8686359 0 0 0 -3.737271,0 1.8686359,1.8686359 0 0 0 3.737271,0 z"
         style="fill:#1a1a1a;stroke:none;stroke-width:0.412007"
         id="path428" /><path
         d="m -5.5089809,1114.5365 a 1.868635,1.868635 0 0 0 -3.7372696,0 1.868635,1.868635 0 0 0 3.7372696,0 z"
         style="fill:#1a1a1a;stroke:none;stroke-width:0.412007"
         id="path430" /><path
         d="m -6.1581601,1124.4452 a 1.868635,1.868635 0 0 0 -3.7372698,0 1.8686349,1.8686349 0 0 0 3.7372698,0 z"
         style="fill:#1a1a1a;stroke:none;stroke-width:0.412007"
         id="path432" /><path
         d="m -3.1059523,1127.4777 a 1.8686349,1.8686349 0 0 0 -3.7372694,0 1.8686349,1.8686349 0 0 0 3.7372694,0 z"
         style="fill:#1a1a1a;stroke:none;stroke-width:0.412007"
         id="path434" /><path
         d="m 7.2045601,1127.3739 a 1.8686352,1.8686352 0 0 0 -3.7372703,0 1.8686351,1.8686351 0 0 0 3.7372703,0 z"
         style="fill:#1a1a1a;stroke:none;stroke-width:0.412007"
         id="path436" /><path
         d="m 10.256804,1124.3414 a 1.8686352,1.8686352 0 0 0 -3.7372703,0 1.8686351,1.8686351 0 0 0 3.7372703,0 z"
         style="fill:#1a1a1a;stroke:none;stroke-width:0.412007"
         id="path438" /><path
         d="m 5.9531629,1123.1283 a 1.8686349,1.8686349 0 0 0 -3.7372694,0 1.8686349,1.8686349 0 0 0 3.7372694,0 z"
         style="fill:#1a1a1a;stroke:none;stroke-width:0.412007"
         id="path440" /><path
         d="m 9.0095958,1120.0767 a 1.8686349,1.8686349 0 0 0 -3.7372697,0 1.8686349,1.8686349 0 0 0 3.7372697,0 z"
         style="fill:#1a1a1a;stroke:none;stroke-width:0.412007"
         id="path442" /><path
         d="m 2.5840967,1114.2926 a 1.8686349,1.8686349 0 0 0 -3.7372694,0 1.8686349,1.8686349 0 0 0 3.7372694,0 z"
         style="fill:#1a1a1a;stroke:none;stroke-width:0.412007"
         id="path444" /><path
         d="m 10.54244,1114.9345 a 1.8686351,1.8686351 0 0 0 -3.7372701,0 1.8686351,1.8686351 0 0 0 3.7372701,0 z"
         style="fill:#1a1a1a;stroke:none;stroke-width:0.412007"
         id="path446" /><path
         d="m 13.314057,1121.3645 a 1.8686349,1.8686349 0 0 0 -3.7372694,0 1.8686349,1.8686349 0 0 0 3.7372694,0 z"
         style="fill:#1a1a1a;stroke:none;stroke-width:0.412007"
         id="path448" /><path
         d="m 9.786638,1110.6522 a 1.8686353,1.8686353 0 0 0 -3.7372705,0 1.8686353,1.8686353 0 0 0 3.7372705,0 z"
         style="fill:#1a1a1a;stroke:none;stroke-width:0.412007"
         id="path450" /><path
         d="m 13.559052,1108.1393 a 1.8686349,1.8686349 0 0 0 -3.7372692,0 1.8686349,1.8686349 0 0 0 3.7372692,0 z"
         style="fill:#1a1a1a;stroke:none;stroke-width:0.412007"
         id="path452" /><path
         d="m 14.284351,1112.3774 a 1.8686349,1.8686349 0 0 0 -3.737269,0 1.8686349,1.8686349 0 0 0 3.737269,0 z"
         style="fill:#1a1a1a;stroke:none;stroke-width:0.412007"
         id="path454" /><path
         d="m 18.713041,1112.0655 a 1.868635,1.868635 0 0 0 -3.73727,0 1.868635,1.868635 0 0 0 3.73727,0 z"
         style="fill:#1a1a1a;stroke:none;stroke-width:0.412007"
         id="path456" /><path
         d="m 17.968715,1107.8483 a 1.8686349,1.8686349 0 0 0 -3.737269,0 1.8686349,1.8686349 0 0 0 3.737269,0 z"
         style="fill:#1a1a1a;stroke:none;stroke-width:0.412007"
         id="path458" /><path
         d="m 22.421215,1109.5816 a 1.868636,1.868636 0 0 0 -3.737272,0 1.868636,1.868636 0 0 0 3.737272,0 z"
         style="fill:#1a1a1a;stroke:none;stroke-width:0.412007"
         id="path460" /><path
         d="m 23.168515,1113.8155 a 1.8686349,1.8686349 0 0 0 -3.737267,0 1.8686349,1.8686349 0 0 0 3.737267,0 z"
         style="fill:#1a1a1a;stroke:none;stroke-width:0.412007"
         id="path462" /></g></g></svg>
